HIERARCHY
ROOT reference
{
  OFFSET 0 0 0
  CHANNELS 6 Xposition Yposition Zposition Zrotation Xrotation Yrotation
  JOINT Hips
  {
    OFFSET 0 97.8064 0
    CHANNELS 6 Xposition Yposition Zposition Zrotation Xrotation Yrotation
    JOINT ToSpine
    {
      OFFSET -2.69724 7.43032 -0.144315
      CHANNELS 6 Xposition Yposition Zposition Zrotation Xrotation Yrotation
      JOINT Spine
      {
        OFFSET -0.0310711 10.7595 1.96963
        CHANNELS 6 Xposition Yposition Zposition Zrotation Xrotation Yrotation
        JOINT Spine1
        {
          OFFSET 13.1342 3.43533 0.764692
          CHANNELS 6 Xposition Yposition Zposition Zrotation Xrotation Yrotation
          JOINT Neck
          {
            OFFSET 29.8703 7.82586 -0.130764
            CHANNELS 6 Xposition Yposition Zposition Zrotation Xrotation Yrotation
            JOINT Head
            {
              OFFSET 9.52751 0.295786 -0.907742
              CHANNELS 6 Xposition Yposition Zposition Zrotation Xrotation Yrotation
              End Site
              {
                OFFSET 16.4037 0.713936 2.7358
              }
            }
          }
          JOINT LeftShoulder
          {
            OFFSET 27.5574 4.95586 2.47156
            CHANNELS 6 Xposition Yposition Zposition Zrotation Xrotation Yrotation
            JOINT LeftArm
            {
              OFFSET 1.20734 -0.998971 20.1238
              CHANNELS 6 Xposition Yposition Zposition Zrotation Xrotation Yrotation
              JOINT LeftForeArm
              {
                OFFSET 26.8049 -0.0536703 -0.155908
                CHANNELS 6 Xposition Yposition Zposition Zrotation Xrotation Yrotation
                JOINT LeftHand
                {
                  OFFSET 26.6817 0 0.320147
                  CHANNELS 6 Xposition Yposition Zposition Zrotation Xrotation Yrotation
                  End Site
                  {
                    OFFSET 18.6119 0 0.382219
                  }
                }
              }
            }
          }
          JOINT RightShoulder
          {
            OFFSET 27.5927 4.71444 -2.65209
            CHANNELS 6 Xposition Yposition Zposition Zrotation Xrotation Yrotation
            JOINT RightArm
            {
              OFFSET 2.83739 -1.17114 -18.7564
              CHANNELS 6 Xposition Yposition Zposition Zrotation Xrotation Yrotation
              JOINT RightForeArm
              {
                OFFSET 28.839 -0.0548439 1.22491
                CHANNELS 6 Xposition Yposition Zposition Zrotation Xrotation Yrotation
                JOINT RightHand
                {
                  OFFSET 26.5114 0 -0.101894
                  CHANNELS 6 Xposition Yposition Zposition Zrotation Xrotation Yrotation
                  End Site
                  {
                    OFFSET 18.2168 0 0
                  }
                }
              }
            }
          }
        }
      }
    }
    JOINT LeftUpLeg
    {
      OFFSET -4.76168 -1.9167 -10.2353
      CHANNELS 6 Xposition Yposition Zposition Zrotation Xrotation Yrotation
      JOINT LeftLeg
      {
        OFFSET 2.55951 -42.0585 -8.02213
        CHANNELS 6 Xposition Yposition Zposition Zrotation Xrotation Yrotation
        JOINT LeftFoot
        {
          OFFSET 3.16357 -42.5282 -3.95426
          CHANNELS 6 Xposition Yposition Zposition Zrotation Xrotation Yrotation
          JOINT LeftToeBase
          {
            OFFSET 0.346054 -6.02161 12.8035
            CHANNELS 6 Xposition Yposition Zposition Zrotation Xrotation Yrotation
            End Site
            {
              OFFSET 0.134235 -1.35082 5.13018
            }
          }
        }
      }
    }
    JOINT RightUpLeg
    {
      OFFSET -4.94151 -1.41743 10.6446
      CHANNELS 6 Xposition Yposition Zposition Zrotation Xrotation Yrotation
      JOINT RightLeg
      {
        OFFSET -2.56294 -42.0364 -7.94377
        CHANNELS 6 Xposition Yposition Zposition Zrotation Xrotation Yrotation
        JOINT RightFoot
        {
          OFFSET -3.0952 -42.555 -4.02241
          CHANNELS 6 Xposition Yposition Zposition Zrotation Xrotation Yrotation
          JOINT RightToeBase
          {
            OFFSET -0.0828122 -6.13587 12.8035
            CHANNELS 6 Xposition Yposition Zposition Zrotation Xrotation Yrotation
            End Site
            {
              OFFSET -0.131328 -1.35082 5.13018
            }
          }
        }
      }
    }
  }
}
MOTION
Frames:	10
Frame Time:	0.0333333
0 0 0 0 0 -0 0 97.8064 0 -9.21641 -69.4912 -99.4257 -2.69724 7.43032 -0.144315 -70.1915 -6.18407e-015 88.8779 -0.0310711 10.7595 1.96963 64.9783 69.5887 25.2871 13.1342 3.43533 0.764692 4.60351 20.8703 1.40837 29.8703 7.82586 -0.130764 -158.867 19.9774 178.863 9.52751 0.295786 -0.907742 -163.551 59.618 -171.956 27.5574 4.95586 2.47156 3.81932 1.88815 -1.18989 1.20734 -0.998971 20.1238 -90 -2.89528e-014 -90 26.8049 -0.0536703 -0.155908 -2.27865e-008 -1.09882e-007 -6.77748e-008 26.6817 -2.84217e-014 0.320147 -4.83776e-016 2.19066e-016 -1.61484e-015 27.5927 4.71444 -2.65209 2.06088 1.77022 3.86625 2.83739 -1.17114 -18.7564 -88.2385 5 88.8941 28.839 -0.0548439 1.22491 1.27948e-006 4.79839e-007 0.0043221 26.5114 0 -0.101894 -1.10621e-012 -4.76474e-009 -0.0296889 -4.76168 -1.9167 -10.2353 -54.5197 2.7833 99.4142 2.55951 -42.0585 -8.02213 -1.21668 19.2657 -6.32176 3.16357 -42.5282 -3.95426 3.72058 -5.93042 -0.842831 0.346054 -6.02161 12.8035 0.207147 -0.61891 0.346907 -4.94151 -1.41743 10.6446 -55.5919 -0.189965 81.4537 -2.56294 -42.0364 -7.94377 1.38344 13.6714 6.74024 -3.0952 -42.555 -4.02241 -6.15803 -1.03764 0.970027 -0.0828122 -6.13587 12.8035 1.52296 -4.82373 -7.85573 
0 0 0 0 0 -0 15.0102 93.0801 -4.58684 71.6787 -38.445 -11.485 -2.69724 7.43032 -0.144315 -70.1915 3.97569e-016 88.8779 -0.0310711 10.7595 1.96963 72.8153 70.614 9.2308 13.1342 3.43533 0.764692 5.43495 19.3025 5.3123 29.8703 7.82586 -0.130764 -122.67 33.5123 154.917 9.52751 0.295786 -0.907742 172.001 77.5657 -147.799 27.5574 4.95586 2.47156 0.259531 -15.6791 -24.2418 1.20734 -0.998971 20.1238 -66.0144 38.6802 -138.272 26.8049 -0.0536703 -0.155908 26.1757 -6.72053 -102.638 26.6817 -4.26326e-014 0.320147 -6.36111e-015 -3.18055e-015 -3.18055e-015 27.5927 4.71444 -2.65209 -2.0799 7.19797 43.2483 2.83739 -1.17114 -18.7564 -130.158 -9.85415 90.4554 28.839 -0.0548439 1.22491 17.3164 -4.7416 75.0676 26.5114 4.26326e-014 -0.101894 -1.10796e-012 -4.76473e-009 -0.0296889 -4.76168 -1.9167 -10.2353 -51.7277 10.9408 99.5313 2.55951 -42.0585 -8.02213 -2.81713 44.1886 -4.78908 3.16357 -42.5282 -3.95426 1.6869 -17.1486 -1.43237 0.346054 -6.02161 12.8035 1.92483 -7.49529 12.4546 -4.94151 -1.41743 10.6446 -42.2468 -11.9356 81.9946 -2.56294 -42.0364 -7.94377 0.0214037 26.8804 8.56631 -3.0952 -42.555 -4.02241 -1.52945 2.91135 0.160728 -0.0828122 -6.13587 12.8035 -0.817322 -2.04468 7.20314 
0 0 0 0 0 -0 14.9727 93.1163 -4.54388 71.294 -38.3756 -11.5709 -2.69724 7.43032 -0.144315 -70.1915 -2.78299e-015 88.8779 -0.0310711 10.7595 1.96963 71.662 70.5817 10.5954 13.1342 3.43533 0.764692 5.55554 19.4567 4.96846 29.8703 7.82586 -0.130764 -121.977 32.7475 153.982 9.52751 0.295786 -0.907742 175.145 77.3288 -149.451 27.5574 4.95586 2.47156 0.236787 -15.965 -23.8961 1.20734 -0.998971 20.1238 -65.9847 38.8633 -138.389 26.8049 -0.0536703 -0.155908 26.3392 -6.67624 -102.463 26.6817 -2.84217e-014 0.320147 3.18055e-015 3.18055e-015 -0 27.5927 4.71444 -2.65209 -2.05125 6.98203 43.7608 2.83739 -1.17114 -18.7564 -130.202 -9.49645 90.5946 28.839 -0.0548439 1.22491 16.8886 -4.59353 75.1383 26.5114 1.42109e-014 -0.101894 -1.10542e-012 -4.76473e-009 -0.0296889 -4.76168 -1.9167 -10.2353 -51.2401 11.1108 99.3483 2.55951 -42.0585 -8.02213 -2.86243 44.5181 -4.79175 3.16357 -42.5282 -3.95426 -0.619142 -18.3089 -1.58099 0.346054 -6.02161 12.8035 1.25033 -6.39313 12.4567 -4.94151 -1.41743 10.6446 -42.1155 -11.5413 82.3213 -2.56294 -42.0364 -7.94377 0.0233369 26.9184 8.80734 -3.0952 -42.555 -4.02241 -2.60048 3.94773 0.26756 -0.0828122 -6.13587 12.8035 0.0912157 -4.67011 3.70192 
0 0 0 0 0 -0 15.0307 93.0852 -4.55112 71.4346 -38.3388 -11.637 -2.69724 7.43032 -0.144315 -70.1915 -2.78299e-015 88.8779 -0.0310711 10.7595 1.96963 71.6901 70.6444 10.2939 13.1342 3.43533 0.764692 5.55008 19.4488 5.13632 29.8703 7.82586 -0.130764 -122.225 32.8905 154.181 9.52751 0.295786 -0.907742 174.24 77.3311 -148.873 27.5574 4.95586 2.47156 0.230327 -15.9903 -23.9478 1.20734 -0.998971 20.1238 -65.831 38.9501 -138.39 26.8049 -0.0536703 -0.155908 26.2803 -6.68909 -102.52 26.6817 -4.26326e-014 0.320147 1.27222e-014 -3.18055e-015 -3.18055e-015 27.5927 4.71444 -2.65209 -1.99194 7.03531 42.713 2.83739 -1.17114 -18.7564 -130.525 -10.4525 89.6534 28.839 -0.0548439 1.22491 17.5593 -4.70756 75.3639 26.5114 4.26326e-014 -0.101894 -1.1015e-012 -4.76474e-009 -0.0296889 -4.76168 -1.9167 -10.2353 -51.3497 10.9091 99.3419 2.55951 -42.0585 -8.02213 -2.92694 44.5386 -5.30855 3.16357 -42.5282 -3.95426 0.158482 -17.4056 -1.48169 0.346054 -6.02161 12.8035 1.9219 -7.71402 13.5165 -4.94151 -1.41743 10.6446 -42.2966 -11.8224 82.0776 -2.56294 -42.0364 -7.94377 0.214867 26.9074 9.99511 -3.0952 -42.555 -4.02241 -2.92673 4.72023 0.284098 -0.0828122 -6.13587 12.8035 0.571317 -6.30795 1.63553 
0 0 0 0 0 -0 15.0316 93.0968 -4.53476 71.3906 -38.2984 -11.695 -2.69724 7.43032 -0.144315 -70.1915 -4.77083e-015 88.8779 -0.0310711 10.7595 1.96963 71.5374 70.6883 10.4365 13.1342 3.43533 0.764692 5.51571 19.5384 4.99361 29.8703 7.82586 -0.130764 -121.916 32.6615 153.313 9.52751 0.295786 -0.907742 176.773 77.5297 -151.083 27.5574 4.95586 2.47156 0.22355 -16.1312 -23.7067 1.20734 -0.998971 20.1238 -65.4849 39.012 -138.662 26.8049 -0.0536703 -0.155908 26.1736 -6.73396 -102.664 26.6817 -4.26326e-014 0.320147 -3.18055e-015 3.18055e-015 -0 27.5927 4.71444 -2.65209 -1.9254 6.98375 41.9924 2.83739 -1.17114 -18.7564 -130.759 -11.2609 88.7969 28.839 -0.0548439 1.22491 17.4117 -4.58823 75.5853 26.5114 2.84217e-014 -0.101894 -1.09991e-012 -4.76474e-009 -0.0296889 -4.76168 -1.9167 -10.2353 -51.3337 10.8467 99.343 2.55951 -42.0585 -8.02213 -2.92451 44.53 -5.29638 3.16357 -42.5282 -3.95426 0.0542242 -17.6227 -1.50276 0.346054 -6.02161 12.8035 1.6501 -7.28185 13.5189 -4.94151 -1.41743 10.6446 -42.318 -11.8181 82.1872 -2.56294 -42.0364 -7.94377 0.202672 26.8102 9.70836 -3.0952 -42.555 -4.02241 -4.52056 4.99521 0.543728 -0.0828122 -6.13587 12.8035 0.746716 -7.77237 1.95132 
0 0 0 0 0 -0 15.0671 93.0742 -4.53095 71.3923 -38.2573 -11.7313 -2.69724 7.43032 -0.144315 -70.1915 7.95139e-016 88.8779 -0.0310711 10.7595 1.96963 70.9881 70.7123 10.7741 13.1342 3.43533 0.764692 5.66128 19.5282 5.25027 29.8703 7.82586 -0.130764 -122.039 32.7348 153.351 9.52751 0.295786 -0.907742 176.906 77.575 -151.194 27.5574 4.95586 2.47156 0.211953 -16.137 -23.9039 1.20734 -0.998971 20.1238 -65.6461 38.6769 -138.63 26.8049 -0.0536703 -0.155908 25.9469 -6.57902 -102.497 26.6817 -2.84217e-014 0.320147 1.27222e-014 1.59028e-015 -3.18055e-015 27.5927 4.71444 -2.65209 -1.89889 6.95211 41.748 2.83739 -1.17114 -18.7564 -130.77 -11.4224 88.6965 28.839 -0.0548439 1.22491 17.1787 -4.50832 75.629 26.5114 4.26326e-014 -0.101894 -1.10866e-012 -4.76474e-009 -0.0296889 -4.76168 -1.9167 -10.2353 -51.3018 10.7833 99.3282 2.55951 -42.0585 -8.02213 -2.97105 44.6022 -5.60568 3.16357 -42.5282 -3.95426 0.357712 -17.2645 -1.46562 0.346054 -6.02161 12.8035 1.92456 -7.84226 14.1091 -4.94151 -1.41743 10.6446 -42.2174 -11.9538 82.1796 -2.56294 -42.0364 -7.94377 0.228374 26.9919 9.49071 -3.0952 -42.555 -4.02241 -3.83632 4.623 0.441799 -0.0828122 -6.13587 12.8035 0.483637 -6.64853 2.91414 
0 0 0 0 0 -0 15.1171 93.052 -4.51181 71.3811 -38.2908 -11.7547 -2.69724 7.43032 -0.144315 -70.1915 -5.56597e-015 88.8779 -0.0310711 10.7595 1.96963 71.4041 70.7438 10.378 13.1342 3.43533 0.764692 5.41279 19.5419 5.23949 29.8703 7.82586 -0.130764 -121.892 32.6614 153.273 9.52751 0.295786 -0.907742 176.598 77.5338 -150.873 27.5574 4.95586 2.47156 0.23033 -16.0384 -23.8222 1.20734 -0.998971 20.1238 -65.3178 39.062 -138.807 26.8049 -0.0536703 -0.155908 26.1917 -6.77783 -102.737 26.6817 -1.42109e-014 0.320147 0 3.18055e-015 -0 27.5927 4.71444 -2.65209 -1.9083 6.91147 42.0469 2.83739 -1.17114 -18.7564 -130.648 -11.1793 88.8428 28.839 -0.0548439 1.22491 17.0052 -4.47832 75.5735 26.5114 1.42109e-014 -0.101894 -1.10488e-012 -4.76474e-009 -0.0296889 -4.76168 -1.9167 -10.2353 -51.3686 10.7515 99.3022 2.55951 -42.0585 -8.02213 -2.90767 44.5208 -5.16757 3.16357 -42.5282 -3.95426 0.556701 -17.2788 -1.46201 0.346054 -6.02161 12.8035 2.03566 -7.87373 13.4 -4.94151 -1.41743 10.6446 -42.1336 -11.8993 82.3237 -2.56294 -42.0364 -7.94377 0.177971 27.1929 9.35987 -3.0952 -42.555 -4.02241 -4.12297 4.52196 0.494972 -0.0828122 -6.13587 12.8035 0.637388 -7.24255 2.27648 
0 0 0 0 0 -0 15.1369 93.0814 -4.4454 71.4085 -38.2536 -11.7541 -2.69724 7.43032 -0.144315 -70.1915 -3.57812e-015 88.8779 -0.0310711 10.7595 1.96963 71.2649 70.6962 10.5169 13.1342 3.43533 0.764692 5.43748 19.5421 5.09132 29.8703 7.82586 -0.130764 -121.841 32.5821 153.123 9.52751 0.295786 -0.907742 176.799 77.5166 -151.011 27.5574 4.95586 2.47156 0.242356 -16.0039 -23.6879 1.20734 -0.998971 20.1238 -65.2784 39.1036 -138.901 26.8049 -0.0536703 -0.155908 26.3624 -6.7955 -102.674 26.6817 -1.42109e-014 0.320147 -6.36111e-015 -3.18055e-015 -0 27.5927 4.71444 -2.65209 -1.90051 6.85161 42.1835 2.83739 -1.17114 -18.7564 -130.811 -11.2656 88.8364 28.839 -0.0548439 1.22491 17.5227 -4.63866 75.5341 26.5114 4.26326e-014 -0.101894 -1.10866e-012 -4.76475e-009 -0.0296889 -4.76168 -1.9167 -10.2353 -51.4362 10.6538 99.1865 2.55951 -42.0585 -8.02213 -2.89569 44.4816 -5.11171 3.16357 -42.5282 -3.95426 0.136744 -17.6162 -1.4999 0.346054 -6.02161 12.8035 1.74695 -7.44083 13.5403 -4.94151 -1.41743 10.6446 -42.1762 -11.8658 82.4085 -2.56294 -42.0364 -7.94377 0.162412 27.2768 9.88757 -3.0952 -42.555 -4.02241 -4.46412 4.77247 0.542478 -0.0828122 -6.13587 12.8035 0.71032 -7.33139 1.6815 
0 0 0 0 0 -0 15.2366 93.0379 -4.41228 71.547 -38.3785 -11.7273 -2.69724 7.43032 -0.144315 -70.1915 -1.59028e-015 88.8779 -0.0310711 10.7595 1.96963 71.2736 70.8646 10.3248 13.1342 3.43533 0.764692 5.31381 19.6253 5.40661 29.8703 7.82586 -0.130764 -121.782 32.6387 153.071 9.52751 0.295786 -0.907742 177.223 77.6164 -151.503 27.5574 4.95586 2.47156 0.204079 -16.1815 -23.9324 1.20734 -0.998971 20.1238 -65.3818 39.0896 -138.855 26.8049 -0.0536703 -0.155908 26.2835 -6.75733 -102.65 26.6817 -2.84217e-014 0.320147 -3.18055e-015 4.77083e-015 -0 27.5927 4.71444 -2.65209 -1.88109 6.80949 42.0801 2.83739 -1.17114 -18.7564 -130.515 -11.1477 88.8057 28.839 -0.0548439 1.22491 16.2954 -4.26506 75.6238 26.5114 2.84217e-014 -0.101894 -1.11074e-012 -4.76474e-009 -0.0296889 -4.76168 -1.9167 -10.2353 -51.6923 10.6331 99.2899 2.55951 -42.0585 -8.02213 -2.86404 44.4369 -4.89966 3.16357 -42.5282 -3.95426 0.0364312 -17.834 -1.52089 0.346054 -6.02161 12.8035 1.67639 -7.27484 13.2957 -4.94151 -1.41743 10.6446 -42.214 -11.9052 82.4827 -2.56294 -42.0364 -7.94377 0.146231 27.4418 9.26759 -3.0952 -42.555 -4.02241 -4.2121 4.39593 0.515353 -0.0828122 -6.13587 12.8035 0.557259 -7.05597 2.79356 
0 0 0 0 0 -0 15.2979 93.0678 -4.34095 71.6157 -38.3953 -11.6322 -2.69724 7.43032 -0.144315 -70.1915 -9.93923e-015 88.8779 -0.0310711 10.7595 1.96963 71.0014 70.7814 10.638 13.1342 3.43533 0.764692 5.43349 19.5764 5.34481 29.8703 7.82586 -0.130764 -121.9 32.6606 153.241 9.52751 0.295786 -0.907742 176.643 77.5444 -150.965 27.5574 4.95586 2.47156 0.207313 -16.1558 -23.941 1.20734 -0.998971 20.1238 -65.3324 39.1874 -138.946 26.8049 -0.0536703 -0.155908 26.2511 -6.7283 -102.617 26.6817 -4.26326e-014 0.320147 -3.18055e-015 6.36111e-015 -0 27.5927 4.71444 -2.65209 -1.90316 6.88451 42.0849 2.83739 -1.17114 -18.7564 -130.481 -11.1678 88.7339 28.839 -0.0548439 1.22491 16.1484 -4.22173 75.6325 26.5114 4.26326e-014 -0.101894 -1.10667e-012 -4.76474e-009 -0.0296889 -4.76168 -1.9167 -10.2353 -51.8382 10.6869 99.2734 2.55951 -42.0585 -8.02213 -2.89693 44.3857 -5.23227 3.16357 -42.5282 -3.95426 0.285842 -17.4738 -1.48428 0.346054 -6.02161 12.8035 1.95412 -7.85449 13.945 -4.94151 -1.41743 10.6446 -42.3471 -11.6866 82.7409 -2.56294 -42.0364 -7.94377 0.00873235 27.5049 9.65014 -3.0952 -42.555 -4.02241 -3.59918 4.12808 0.424427 -0.0828122 -6.13587 12.8035 0.778492 -7.18311 0.801338 
